<?xml version="1.0" encoding="UTF-8" standalone="no"?>
<svg
   xmlns:dc="http://purl.org/dc/elements/1.1/"
   xmlns:cc="http://creativecommons.org/ns#"
   xmlns:rdf="http://www.w3.org/1999/02/22-rdf-syntax-ns#"
   xmlns:svg="http://www.w3.org/2000/svg"
   xmlns="http://www.w3.org/2000/svg"
   id="svg8"
   version="1.1"
   viewBox="0 0 6.3499999 6.3500002"
   height="24"
   width="24">
  <defs
     id="defs2" />
  <metadata
     id="metadata5">
    <rdf:RDF>
      <cc:Work
         rdf:about="">
        <dc:format>image/svg+xml</dc:format>
        <dc:type
           rdf:resource="http://purl.org/dc/dcmitype/StillImage" />
        <dc:title></dc:title>
      </cc:Work>
    </rdf:RDF>
  </metadata>
  <g
     transform="translate(0,-290.64998)"
     id="layer1">
    <g
       id="text3947"
       style="font-style:normal;font-variant:normal;font-weight:normal;font-stretch:normal;font-size:10.58333302px;line-height:1.25;font-family:Roboto;-inkscape-font-specification:Roboto;letter-spacing:0px;word-spacing:0px;fill:#000000;fill-opacity:1;stroke:none;stroke-width:0.26458332"
       aria-label="-1">
      <g
         transform="matrix(0.69993184,0,0,0.69993184,-0.54160524,90.980904)"
         id="g3960">
        <g
           transform="matrix(0.67368426,0,0,0.67368426,1.540096,94.958011)"
           id="text3987"
           style="font-style:normal;font-weight:normal;font-size:15.12051964px;line-height:1.25;font-family:sans-serif;letter-spacing:0px;word-spacing:0px;fill:#000000;fill-opacity:1;stroke:none;stroke-width:0.10001593"
           aria-label="-2">
          <g
             transform="translate(-6.0970755,3.837376)"
             id="g3996">
            <path
               d="m 5.8418764,286.25312 h 3.9794727 v 1.21082 H 5.8418764 Z"
               style="stroke-width:0.10001593"
               id="path3989" />
            <path
               d="m 12.338975,289.74531 h 5.205062 v 1.25512 H 10.54489 v -1.25512 q 0.849052,-0.87859 2.3109,-2.3552 1.46923,-1.484 1.845766,-1.91222 0.716158,-0.80475 0.996714,-1.35848 0.28794,-0.56111 0.28794,-1.10008 0,-0.87858 -0.620178,-1.43231 -0.612794,-0.55373 -1.602125,-0.55373 -0.701392,0 -1.483997,0.24364 -0.775222,0.24364 -1.661189,0.73831 v -1.50615 q 0.900734,-0.36177 1.683339,-0.54635 0.782605,-0.18457 1.432314,-0.18457 1.712872,0 2.731735,0.85643 1.018863,0.85644 1.018863,2.28875 0,0.67924 -0.258407,1.29204 -0.251024,0.60541 -0.922884,1.43231 -0.184576,0.21411 -1.173907,1.24036 -0.989331,1.01886 -2.790799,2.85725 z"
               style="stroke-width:0.10001593"
               id="path3991" />
          </g>
        </g>
      </g>
    </g>
  </g>
</svg>
