<?xml version="1.0" encoding="UTF-8" standalone="no"?>
<svg
   xmlns:dc="http://purl.org/dc/elements/1.1/"
   xmlns:cc="http://creativecommons.org/ns#"
   xmlns:rdf="http://www.w3.org/1999/02/22-rdf-syntax-ns#"
   xmlns:svg="http://www.w3.org/2000/svg"
   xmlns="http://www.w3.org/2000/svg"
   id="svg8"
   version="1.1"
   viewBox="0 0 6.3499999 6.3500002"
   height="24"
   width="24">
  <defs
     id="defs2" />
  <metadata
     id="metadata5">
    <rdf:RDF>
      <cc:Work
         rdf:about="">
        <dc:format>image/svg+xml</dc:format>
        <dc:type
           rdf:resource="http://purl.org/dc/dcmitype/StillImage" />
        <dc:title></dc:title>
      </cc:Work>
    </rdf:RDF>
  </metadata>
  <g
     transform="translate(0,-290.64998)"
     id="layer1">
    <g
       transform="matrix(0.6610683,0,0,0.6610683,-1.0359113,102.09588)"
       id="text3869"
       style="font-style:normal;font-weight:normal;font-size:10.58333302px;line-height:1.25;font-family:sans-serif;letter-spacing:0px;word-spacing:0px;fill:#000000;fill-opacity:1;stroke:none;stroke-width:0.26458332"
       aria-label="3">
      <path
         id="path3871"
         style="stroke-width:0.26458332"
         d="m 7.3181206,289.72173 q 0.7493082,0.1602 1.1678873,0.66663 0.4237468,0.50643 0.4237468,1.25057 0,1.14205 -0.7854818,1.76733 -0.7854817,0.62528 -2.2324218,0.62528 -0.4857584,0 -1.0025228,-0.0982 -0.5115966,-0.093 -1.0593668,-0.28422 v -1.00769 q 0.434082,0.25321 0.9508463,0.3824 0.5167643,0.1292 1.0800374,0.1292 0.9818522,0 1.4934489,-0.38758 0.5167643,-0.38757 0.5167643,-1.12654 0,-0.68213 -0.4805908,-1.06454 Q 6.9150444,290.1868 6.0623833,290.1868 H 5.1632134 v -0.85783 h 0.9405111 q 0.7699788,0 1.1782226,-0.30489 0.4082438,-0.31006 0.4082438,-0.88884 0,-0.59427 -0.4237467,-0.9095 -0.4185791,-0.32039 -1.2040609,-0.32039 -0.4289144,0 -0.9198404,0.093 -0.4909261,0.093 -1.0800374,0.28939 v -0.93017 q 0.5942789,-0.16537 1.1110432,-0.24805 0.521932,-0.0827 0.9818522,-0.0827 1.1885579,0 1.8810221,0.5426 0.6924641,0.53743 0.6924641,1.45727 0,0.64079 -0.3669026,1.08521 -0.3669027,0.43925 -1.0438639,0.60978 z" />
    </g>
  </g>
</svg>
