<?xml version="1.0" encoding="UTF-8"?>
<svg enable-background="new 0 0 512 512" version="1.1" viewBox="0 0 512 512" xml:space="preserve" xmlns="http://www.w3.org/2000/svg">

	
		<path d="M75.051,0H15.068C6.787,0,0.073,6.714,0.073,14.996v60.983c0,8.282,6.713,14.996,14.996,14.996    c8.282,0,14.996-6.714,14.996-14.996V29.992h44.987c8.282,0,14.996-6.714,14.996-14.996C90.047,6.714,83.333,0,75.051,0z"/>
	


	
		<path d="m496.93 0h-59.983c-8.282 0-14.996 6.714-14.996 14.996s6.713 14.996 14.996 14.996h44.987v45.987c0 8.282 6.714 14.996 14.996 14.996s14.996-6.714 14.996-14.996v-60.983c0-8.282-6.714-14.996-14.996-14.996z"/>
	


	
		<path d="m75.051 481.86h-44.987v-45.987c0-8.282-6.714-14.996-14.996-14.996s-14.996 6.714-14.996 14.996v60.983c0 8.282 6.713 14.996 14.996 14.996h59.983c8.282 0 14.996-6.714 14.996-14.996s-6.714-14.996-14.996-14.996z"/>
	


	
		<path d="m496.93 420.88c-8.282 0-14.996 6.714-14.996 14.996v45.987h-44.987c-8.282 0-14.996 6.714-14.996 14.996s6.714 14.996 14.996 14.996h59.983c8.282 0 14.996-6.714 14.996-14.996v-60.983c0-8.282-6.714-14.996-14.996-14.996z"/>
	


	
		<path d="m472.37 123.02-208.85-121c-4.649-2.694-10.386-2.694-15.035 0l-208.94 121c-4.606 2.669-7.481 7.638-7.481 12.966 0 0.03 3e-3 0.06 3e-3 0.089v239.92c0 5.379 2.923 10.413 7.63 13.063l208.79 120.92c2.249 1.303 4.925 2.02 7.518 2.02 2.707 0 5.352-0.766 7.518-2.02l208.7-120.92c0.035-0.02 0.069-0.04 0.104-0.06 4.837-3.49 7.444-6.423 7.517-12.821 1e-3 -0.06 6e-3 -0.119 6e-3 -0.179v-239.92c0-0.03 3e-3 -0.06 3e-3 -0.089 0-5.333-2.877-10.303-7.481-12.967zm-231.37 347.96-163.83-94.917 126.3-72.429c7.185-4.12 9.669-13.284 5.548-20.468-4.119-7.185-13.283-9.668-20.468-5.548l-126.5 72.492v-188.21l178.95 102.77v206.31zm14.996-232.28-178.84-102.76 178.84-103.62 178.84 103.62-178.84 102.76zm193.95 111.41-126.51-72.493c-7.184-4.119-16.348-1.637-20.468 5.548-4.121 7.185-1.637 16.348 5.548 20.468l126.3 72.428-163.83 94.917v-206.3l178.96-102.77v188.21z"/>
	
















</svg>
