<?xml version="1.0" encoding="UTF-8" standalone="no"?>
<svg
   xmlns:dc="http://purl.org/dc/elements/1.1/"
   xmlns:cc="http://creativecommons.org/ns#"
   xmlns:rdf="http://www.w3.org/1999/02/22-rdf-syntax-ns#"
   xmlns:svg="http://www.w3.org/2000/svg"
   xmlns="http://www.w3.org/2000/svg"
   width="24"
   height="24"
   viewBox="0 0 6.3499999 6.3500002"
   version="1.1"
   id="svg8">
  <defs
     id="defs2" />
  <metadata
     id="metadata5">
    <rdf:RDF>
      <cc:Work
         rdf:about="">
        <dc:format>image/svg+xml</dc:format>
        <dc:type
           rdf:resource="http://purl.org/dc/dcmitype/StillImage" />
        <dc:title></dc:title>
      </cc:Work>
    </rdf:RDF>
  </metadata>
  <g
     id="layer1"
     transform="translate(2.4999999e-8,-290.64999)">
    <g
       id="text3921"
       style="font-style:normal;font-weight:normal;font-size:7.12045574px;line-height:1.25;font-family:sans-serif;letter-spacing:0px;word-spacing:0px;fill:#000000;fill-opacity:1;stroke:none;stroke-width:0.17801139"
       aria-label="5">
      <path
         id="path4149"
         style="stroke-width:0.17801139"
         d="m 1.7147503,291.17916 h 2.7570905 v 0.59105 H 2.3579555 v 1.2725 q 0.1529786,-0.0521 0.3059571,-0.0765 0.1529785,-0.0278 0.3059571,-0.0278 0.8691962,0 1.3768069,0.47632 0.5076106,0.47632 0.5076106,1.28989 0,0.8379 -0.5215178,1.30379 -0.5215177,0.46241 -1.4706801,0.46241 -0.3268177,0 -0.6675427,-0.0556 -0.3372481,-0.0556 -0.6988338,-0.16688 v -0.70579 q 0.3129107,0.17036 0.646682,0.25381 0.3337714,0.0834 0.7057874,0.0834 0.6014838,0 0.9526391,-0.31639 0.3511553,-0.31639 0.3511553,-0.85876 0,-0.54238 -0.3511553,-0.85877 -0.3511553,-0.31639 -0.9526391,-0.31639 -0.2816196,0 -0.5632392,0.0626 -0.2781428,0.0626 -0.5701927,0.1947 z" />
    </g>
  </g>
</svg>
