<?xml version="1.0" encoding="UTF-8" standalone="no"?>
<svg
   xmlns:dc="http://purl.org/dc/elements/1.1/"
   xmlns:cc="http://creativecommons.org/ns#"
   xmlns:rdf="http://www.w3.org/1999/02/22-rdf-syntax-ns#"
   xmlns:svg="http://www.w3.org/2000/svg"
   xmlns="http://www.w3.org/2000/svg"
   xmlns:sodipodi="http://sodipodi.sourceforge.net/DTD/sodipodi-0.dtd"
   xmlns:inkscape="http://www.inkscape.org/namespaces/inkscape"
   inkscape:version="1.0 (4035a4fb49, 2020-05-01)"
   height="480"
   width="480"
   sodipodi:docname="coffee.svg"
   xml:space="preserve"
   viewBox="0 0 480 480.00002"
   y="0px"
   x="0px"
   id="Capa_1"
   version="1.1"><metadata
   id="metadata73"><rdf:RDF><cc:Work
       rdf:about=""><dc:format>image/svg+xml</dc:format><dc:type
         rdf:resource="http://purl.org/dc/dcmitype/StillImage" /><dc:title></dc:title></cc:Work></rdf:RDF></metadata><defs
   id="defs71" /><sodipodi:namedview
   inkscape:current-layer="Capa_1"
   inkscape:window-maximized="1"
   inkscape:window-y="0"
   inkscape:window-x="1964"
   inkscape:cy="235.55893"
   inkscape:cx="282.03643"
   inkscape:zoom="0.9874867"
   width="480mm"
   units="px"
   showgrid="false"
   id="namedview69"
   inkscape:window-height="1051"
   inkscape:window-width="1876"
   inkscape:pageshadow="2"
   inkscape:pageopacity="0"
   guidetolerance="10"
   gridtolerance="10"
   objecttolerance="10"
   borderopacity="1"
   bordercolor="#666666"
   pagecolor="#ffffff" />
<g
   id="g6">
	<g
   id="g4">
		
	</g>
</g>




<circle
   r="240"
   cy="240"
   cx="240"
   id="path898"
   style="fill:#6d4c41;fill-opacity:1;stroke-width:20;stroke-linejoin:round" /><g
   style="fill:#ffffff"
   transform="matrix(0.79692413,0,0,0.79692413,28.495812,51.709317)"
   id="g914"><path
     style="fill:#ffffff"
     d="M 394.655,202.654 H 95.988 c -17.643,0 -32,14.357 -32,32 v 21.333 c 0,76.117 42.048,145.152 109.717,180.16 5.227,2.688 130.71,-13.74 133.42,-18.988 -30.0882,7.34764 -118.38,2.732 -123.628,0.022 C 122.953,385.864 85.321,324.104 85.321,255.986 v -21.333 c 0,-5.888 4.779,-10.667 10.667,-10.667 h 298.667 c 5.888,0 10.667,4.779 10.667,10.667 v 21.333 c 0,68.117 -37.632,129.877 -98.197,161.173 -5.248,2.709 -136.108,13.761 -133.42,18.988 3.09962,6.07124 134.45461,5.65488 143.211,-0.023 67.691,-34.987 109.739,-104 109.739,-180.139 v -21.333 c 0,-17.641 -14.358,-31.998 -32,-31.998 z"
     id="path2"
     sodipodi:nodetypes="sssscccsssssscccsss" /><g
     style="fill:#ffffff"
     id="g18">
	<g
   style="fill:#ffffff"
   id="g16">
		<path
   style="fill:#ffffff"
   d="m 491.359,253.022 c -28.736,-18.475 -74.645,1.579 -79.787,3.904 -5.355,2.453 -7.744,8.768 -5.291,14.144 2.453,5.376 8.747,7.744 14.144,5.291 10.283,-4.672 43.264,-15.744 59.392,-5.355 7.275,4.672 10.837,13.739 10.837,27.648 0,42.709 -86.144,68.523 -119.403,74.88 l -7.552,1.493 c -5.781,1.131 -9.536,6.741 -8.405,12.523 1.003,5.077 5.461,8.597 10.453,8.597 0.683,0 1.365,-0.064 2.069,-0.213 l 7.488,-1.472 c 5.589,-1.067 136.683,-26.773 136.683,-95.808 10e-4,-21.461 -6.953,-36.8 -20.628,-45.632 z"
   id="path14" />
	</g>
</g><g
     style="fill:#ffffff"
     id="g24">
	<g
   style="fill:#ffffff"
   id="g22">
		<path
   style="fill:#ffffff"
   d="m 328.372,113.31 c 17.344,-21.675 17.344,-55.616 0,-77.291 -3.691,-4.608 -10.368,-5.376 -14.997,-1.664 -4.608,3.691 -5.355,10.389 -1.664,14.997 10.987,13.717 10.987,36.907 -0.021,50.667 -17.365,21.675 -17.365,55.616 0,77.291 2.112,2.645 5.205,4.011 8.341,4.011 2.325,0 4.693,-0.768 6.656,-2.347 4.608,-3.691 5.355,-10.411 1.664,-14.997 -11.008,-13.718 -11.008,-36.907 0.021,-50.667 z"
   id="path20" />
	</g>
</g><g
     style="fill:#ffffff"
     id="g30">
	<g
   style="fill:#ffffff"
   id="g28">
		<path
   style="fill:#ffffff"
   d="m 264.287,113.31 c 17.365,-21.675 17.365,-55.616 0,-77.291 -3.669,-4.608 -10.389,-5.355 -14.997,-1.664 -4.608,3.691 -5.355,10.411 -1.664,14.997 11.008,13.717 11.008,36.907 -0.021,50.667 -17.344,21.675 -17.344,55.616 0,77.291 2.112,2.645 5.205,4.011 8.341,4.011 2.325,0 4.672,-0.768 6.656,-2.347 4.608,-3.691 5.355,-10.389 1.664,-14.997 -10.987,-13.718 -10.987,-36.907 0.021,-50.667 z"
   id="path26" />
	</g>
</g><g
     style="fill:#ffffff"
     id="g36">
	<g
   style="fill:#ffffff"
   id="g34">
		<path
   style="fill:#ffffff"
   d="m 200.372,113.331 c 17.344,-21.675 17.344,-55.616 0,-77.291 -3.669,-4.608 -10.368,-5.376 -14.997,-1.664 -4.587,3.669 -5.333,10.389 -1.664,14.976 10.987,13.717 10.987,36.907 -0.021,50.667 -17.365,21.675 -17.365,55.616 0,77.291 2.112,2.645 5.205,4.011 8.341,4.011 2.325,0 4.693,-0.768 6.656,-2.325 4.608,-3.691 5.355,-10.411 1.664,-14.997 -11.008,-13.74 -11.008,-36.908 0.021,-50.668 z"
   id="path32" />
	</g>
</g></g>
<g
   id="g38">
</g>
<g
   id="g40">
</g>
<g
   id="g42">
</g>
<g
   id="g44">
</g>
<g
   id="g46">
</g>
<g
   id="g48">
</g>
<g
   id="g50">
</g>
<g
   id="g52">
</g>
<g
   id="g54">
</g>
<g
   id="g56">
</g>
<g
   id="g58">
</g>
<g
   id="g60">
</g>
<g
   id="g62">
</g>
<g
   id="g64">
</g>
<g
   id="g66">
</g>
</svg>
