<?xml version="1.0" encoding="UTF-8"?>
<svg width="480" height="480" version="1.1" viewBox="0 0 480 480" xml:space="preserve" xmlns="http://www.w3.org/2000/svg">

	





<circle cx="240" cy="240" r="240" fill="#6d4c41" stroke-linejoin="round" stroke-width="20"/><g transform="matrix(.79692 0 0 .79692 28.496 51.709)" fill="#fff"><path d="m394.66 202.65h-298.67c-17.643 0-32 14.357-32 32v21.333c0 76.117 42.048 145.15 109.72 180.16 5.227 2.688 130.71-13.74 133.42-18.988-30.088 7.3476-118.38 2.732-123.63 0.022-60.544-31.317-98.176-93.077-98.176-161.2v-21.333c0-5.888 4.779-10.667 10.667-10.667h298.67c5.888 0 10.667 4.779 10.667 10.667v21.333c0 68.117-37.632 129.88-98.197 161.17-5.248 2.709-136.11 13.761-133.42 18.988 3.0996 6.0712 134.45 5.6549 143.21-0.023 67.691-34.987 109.74-104 109.74-180.14v-21.333c0-17.641-14.358-31.998-32-31.998z"/>
	<g fill="#fff">
		<path d="m491.36 253.02c-28.736-18.475-74.645 1.579-79.787 3.904-5.355 2.453-7.744 8.768-5.291 14.144s8.747 7.744 14.144 5.291c10.283-4.672 43.264-15.744 59.392-5.355 7.275 4.672 10.837 13.739 10.837 27.648 0 42.709-86.144 68.523-119.4 74.88l-7.552 1.493c-5.781 1.131-9.536 6.741-8.405 12.523 1.003 5.077 5.461 8.597 10.453 8.597 0.683 0 1.365-0.064 2.069-0.213l7.488-1.472c5.589-1.067 136.68-26.773 136.68-95.808 1e-3 -21.461-6.953-36.8-20.628-45.632z" fill="#fff"/>
	</g>

	<g fill="#fff">
		<path d="m328.37 113.31c17.344-21.675 17.344-55.616 0-77.291-3.691-4.608-10.368-5.376-14.997-1.664-4.608 3.691-5.355 10.389-1.664 14.997 10.987 13.717 10.987 36.907-0.021 50.667-17.365 21.675-17.365 55.616 0 77.291 2.112 2.645 5.205 4.011 8.341 4.011 2.325 0 4.693-0.768 6.656-2.347 4.608-3.691 5.355-10.411 1.664-14.997-11.008-13.718-11.008-36.907 0.021-50.667z" fill="#fff"/>
	</g>

	<g fill="#fff">
		<path d="m264.29 113.31c17.365-21.675 17.365-55.616 0-77.291-3.669-4.608-10.389-5.355-14.997-1.664s-5.355 10.411-1.664 14.997c11.008 13.717 11.008 36.907-0.021 50.667-17.344 21.675-17.344 55.616 0 77.291 2.112 2.645 5.205 4.011 8.341 4.011 2.325 0 4.672-0.768 6.656-2.347 4.608-3.691 5.355-10.389 1.664-14.997-10.987-13.718-10.987-36.907 0.021-50.667z" fill="#fff"/>
	</g>

	<g fill="#fff">
		<path d="m200.37 113.33c17.344-21.675 17.344-55.616 0-77.291-3.669-4.608-10.368-5.376-14.997-1.664-4.587 3.669-5.333 10.389-1.664 14.976 10.987 13.717 10.987 36.907-0.021 50.667-17.365 21.675-17.365 55.616 0 77.291 2.112 2.645 5.205 4.011 8.341 4.011 2.325 0 4.693-0.768 6.656-2.325 4.608-3.691 5.355-10.411 1.664-14.997-11.008-13.74-11.008-36.908 0.021-50.668z" fill="#fff"/>
	</g>
</g>















</svg>
