<?xml version="1.0" encoding="UTF-8"?>
<svg width="480" height="480" version="1.1" viewBox="0 0 480 480" xml:space="preserve" xmlns="http://www.w3.org/2000/svg">

	
		<path d="m233.58 265.45h-30.2c-4.879 0-8.833 3.955-8.833 8.833s3.954 8.833 8.833 8.833h30.2c4.88 0 8.833-3.955 8.833-8.833s-3.954-8.833-8.833-8.833z"/>
	

<g transform="matrix(.9375 0 0 .9375 5.5831 -1.4763e-5)">
	
		<path d="m413.84 25.645h-130.3v-16.812c0-2.744-1.276-5.333-3.452-7.004-2.178-1.672-5.007-2.239-7.658-1.53l-176.55 47.079c-3.867 1.031-6.557 4.533-6.557 8.535v28.531c0 4.878 3.954 8.833 8.833 8.833s8.833-3.955 8.833-8.833v-21.744l158.88-42.369v472.06l-158.88-31.776v-346.4c0-4.878-3.954-8.833-8.833-8.833s-8.833 3.955-8.833 8.833v353.64c0 4.211 2.971 7.836 7.101 8.661l176.55 35.31c0.575 0.115 1.154 0.172 1.732 0.172 2.025 0 4.007-0.696 5.6-2.002 2.046-1.678 3.233-4.185 3.233-6.831v-16.81h81.405c4.88 0 8.833-3.955 8.833-8.833s-3.954-8.833-8.833-8.833h-81.405v-25.203h87.431c4.88 0 8.833-3.955 8.833-8.833v-357.31c0-4.878-3.954-8.833-8.833-8.833h-87.431v-25.204h121.47v425.38h-12.602c-4.88 0-8.833 3.955-8.833 8.833s3.954 8.833 8.833 8.833h21.435c4.88 0 8.833-3.955 8.833-8.833v-443.04c2e-3 -4.878-3.953-8.833-8.831-8.833zm-51.704 60.536v339.64h-78.597v-339.64z"/>
	
</g>















</svg>
