<?xml version="1.0" encoding="UTF-8" standalone="no"?>
<svg
   xmlns:dc="http://purl.org/dc/elements/1.1/"
   xmlns:cc="http://creativecommons.org/ns#"
   xmlns:rdf="http://www.w3.org/1999/02/22-rdf-syntax-ns#"
   xmlns:svg="http://www.w3.org/2000/svg"
   xmlns="http://www.w3.org/2000/svg"
   xmlns:sodipodi="http://sodipodi.sourceforge.net/DTD/sodipodi-0.dtd"
   xmlns:inkscape="http://www.inkscape.org/namespaces/inkscape"
   inkscape:version="1.0 (4035a4fb49, 2020-05-01)"
   height="480"
   width="480"
   sodipodi:docname="door.svg"
   xml:space="preserve"
   viewBox="0 0 480 480"
   y="0px"
   x="0px"
   id="Capa_1"
   version="1.1"><metadata
   id="metadata49"><rdf:RDF><cc:Work
       rdf:about=""><dc:format>image/svg+xml</dc:format><dc:type
         rdf:resource="http://purl.org/dc/dcmitype/StillImage" /><dc:title></dc:title></cc:Work></rdf:RDF></metadata><defs
   id="defs47" /><sodipodi:namedview
   inkscape:current-layer="Capa_1"
   inkscape:window-maximized="1"
   inkscape:window-y="0"
   inkscape:window-x="1964"
   inkscape:cy="256"
   inkscape:cx="256"
   inkscape:zoom="1.3964844"
   showgrid="false"
   id="namedview45"
   inkscape:window-height="1051"
   inkscape:window-width="1876"
   inkscape:pageshadow="2"
   inkscape:pageopacity="0"
   guidetolerance="10"
   gridtolerance="10"
   objecttolerance="10"
   borderopacity="1"
   bordercolor="#666666"
   pagecolor="#ffffff" />
<g
   id="g6">
	<g
   id="g4">
		<path
   id="path2"
   d="m 233.582,265.452 h -30.2 c -4.879,0 -8.833,3.955 -8.833,8.833 0,4.878 3.954,8.833 8.833,8.833 h 30.2 c 4.88,0 8.833,-3.955 8.833,-8.833 0,-4.878 -3.954,-8.833 -8.833,-8.833 z" />
	</g>
</g>
<g
   transform="matrix(0.93749774,0,0,0.93749774,5.5830772,-1.476274e-5)"
   id="g12">
	<g
   id="g10">
		<path
   id="path8"
   d="M 413.841,25.645 H 283.539 V 8.833 c 0,-2.744 -1.276,-5.333 -3.452,-7.004 -2.178,-1.672 -5.007,-2.239 -7.658,-1.53 L 95.883,47.378 c -3.867,1.031 -6.557,4.533 -6.557,8.535 v 28.531 c 0,4.878 3.954,8.833 8.833,8.833 4.879,0 8.833,-3.955 8.833,-8.833 V 62.7 l 158.88,-42.369 v 472.061 l -158.88,-31.776 v -346.4 c 0,-4.878 -3.954,-8.833 -8.833,-8.833 -4.879,0 -8.833,3.955 -8.833,8.833 v 353.642 c 0,4.211 2.971,7.836 7.101,8.661 l 176.546,35.31 c 0.575,0.115 1.154,0.172 1.732,0.172 2.025,0 4.007,-0.696 5.6,-2.002 2.046,-1.678 3.233,-4.185 3.233,-6.831 v -16.81 h 81.405 c 4.88,0 8.833,-3.955 8.833,-8.833 0,-4.878 -3.954,-8.833 -8.833,-8.833 h -81.405 v -25.203 h 87.431 c 4.88,0 8.833,-3.955 8.833,-8.833 V 77.348 c 0,-4.878 -3.954,-8.833 -8.833,-8.833 H 283.538 V 43.311 h 121.468 v 425.377 h -12.602 c -4.88,0 -8.833,3.955 -8.833,8.833 0,4.878 3.954,8.833 8.833,8.833 h 21.435 c 4.88,0 8.833,-3.955 8.833,-8.833 V 34.478 c 0.002,-4.878 -3.953,-8.833 -8.831,-8.833 z M 362.137,86.181 V 425.82 H 283.54 V 86.181 Z" />
	</g>
</g>
<g
   id="g14">
</g>
<g
   id="g16">
</g>
<g
   id="g18">
</g>
<g
   id="g20">
</g>
<g
   id="g22">
</g>
<g
   id="g24">
</g>
<g
   id="g26">
</g>
<g
   id="g28">
</g>
<g
   id="g30">
</g>
<g
   id="g32">
</g>
<g
   id="g34">
</g>
<g
   id="g36">
</g>
<g
   id="g38">
</g>
<g
   id="g40">
</g>
<g
   id="g42">
</g>
</svg>
