<?xml version="1.0" encoding="UTF-8"?>
<svg width="480" height="480" version="1.1" viewBox="0 0 480 480" xml:space="preserve" xmlns="http://www.w3.org/2000/svg">
















<rect transform="rotate(45)" x="169.91" y="-169.5" width="339" height="339" fill="#64dd17" stroke-linejoin="round" stroke-width="20"/><g transform="matrix(.50778 0 0 .50778 114.07 114.07)" fill="#fff">
	<g fill="#fff">
		<g fill="#fff">
			<path d="m428 24h-328v-16c0-4.418-3.582-8-8-8h-24c-4.418 0-8 3.582-8 8v480c0 4.418 3.582 8 8 8h24c4.418 0 8-3.582 8-8v-192h328c4.418 0 8-3.582 8-8v-256c0-4.418-3.582-8-8-8zm-344 456h-8v-464h8zm336-360h-80v80h80v80h-80v-80h-80v80h-80v-80h-80v-80h80v-80h80v80h80v-80h80z"/>
			<rect x="180" y="120" width="80" height="80"/>
		</g>
	</g>
</g></svg>
