<?xml version="1.0" encoding="UTF-8" standalone="no"?>
<svg
   xmlns:dc="http://purl.org/dc/elements/1.1/"
   xmlns:cc="http://creativecommons.org/ns#"
   xmlns:rdf="http://www.w3.org/1999/02/22-rdf-syntax-ns#"
   xmlns:svg="http://www.w3.org/2000/svg"
   xmlns="http://www.w3.org/2000/svg"
   xmlns:sodipodi="http://sodipodi.sourceforge.net/DTD/sodipodi-0.dtd"
   xmlns:inkscape="http://www.inkscape.org/namespaces/inkscape"
   inkscape:version="1.0 (4035a4fb49, 2020-05-01)"
   height="480"
   width="480"
   sodipodi:docname="finish.svg"
   xml:space="preserve"
   viewBox="0 0 480 480"
   y="0px"
   x="0px"
   id="Capa_1"
   version="1.1"><metadata
   id="metadata47"><rdf:RDF><cc:Work
       rdf:about=""><dc:format>image/svg+xml</dc:format><dc:type
         rdf:resource="http://purl.org/dc/dcmitype/StillImage" /><dc:title></dc:title></cc:Work></rdf:RDF></metadata><defs
   id="defs45" /><sodipodi:namedview
   inkscape:current-layer="Capa_1"
   inkscape:window-maximized="1"
   inkscape:window-y="0"
   inkscape:window-x="1964"
   inkscape:cy="285.12542"
   inkscape:cx="258.09686"
   inkscape:zoom="1.0193172"
   showgrid="false"
   id="namedview43"
   inkscape:window-height="1051"
   inkscape:window-width="1876"
   inkscape:pageshadow="2"
   inkscape:pageopacity="0"
   guidetolerance="10"
   gridtolerance="10"
   objecttolerance="10"
   borderopacity="1"
   bordercolor="#666666"
   pagecolor="#ffffff" />

<g
   id="g12">
</g>
<g
   id="g14">
</g>
<g
   id="g16">
</g>
<g
   id="g18">
</g>
<g
   id="g20">
</g>
<g
   id="g22">
</g>
<g
   id="g24">
</g>
<g
   id="g26">
</g>
<g
   id="g28">
</g>
<g
   id="g30">
</g>
<g
   id="g32">
</g>
<g
   id="g34">
</g>
<g
   id="g36">
</g>
<g
   id="g38">
</g>
<g
   id="g40">
</g>
<rect
   transform="rotate(45)"
   y="-169.5"
   x="169.91127"
   height="339"
   width="339"
   id="rect49"
   style="fill:#64dd17;fill-opacity:1;stroke-width:20;stroke-linejoin:round" /><g
   transform="matrix(0.5077833,0,0,0.5077833,114.06974,114.06974)"
   style="fill:#ffffff"
   id="g10">
	<g
   style="fill:#ffffff"
   id="g8">
		<g
   style="fill:#ffffff"
   id="g6">
			<path
   style="fill:#ffffff"
   id="path2"
   d="M 428,24 H 100 V 8 C 100,3.582 96.418,0 92,0 H 68 c -4.418,0 -8,3.582 -8,8 v 480 c 0,4.418 3.582,8 8,8 h 24 c 4.418,0 8,-3.582 8,-8 V 296 h 328 c 4.418,0 8,-3.582 8,-8 V 32 c 0,-4.418 -3.582,-8 -8,-8 z M 84,480 H 76 V 16 h 8 z M 420,120 h -80 v 80 h 80 v 80 h -80 v -80 h -80 v 80 h -80 v -80 h -80 v -80 h 80 V 40 h 80 v 80 h 80 V 40 h 80 z" />
			<rect
   style="fill:#ffffff"
   id="rect4"
   height="80"
   width="80"
   y="120"
   x="180" />
		</g>
	</g>
</g></svg>
