<svg id="Capa_1" enable-background="new 0 0 512 512" height="512" viewBox="0 0 512 512" width="512" xmlns="http://www.w3.org/2000/svg"><g id="XMLID_1228_"><g id="XMLID_224_"><path id="XMLID_1167_" d="m246.25 112c-64.514 0-117 52.486-117 117s52.486 117 117 117 117-52.486 117-117-52.486-117-117-117zm97 117c0 14.09-3.023 27.486-8.449 39.578l-31.445-18.154c2.51-6.67 3.894-13.887 3.894-21.424 0-1.995-.103-3.967-.292-5.914l35.079-9.4c.795 4.99 1.213 10.104 1.213 15.314zm-138 0c0-22.607 18.393-41 41-41s41 18.393 41 41-18.393 41-41 41-41-18.393-41-41zm31-60.166c-9.375 1.553-18.029 5.252-25.451 10.573l-25.668-25.668c14.259-11.602 31.861-19.244 51.12-21.225v36.32zm100.604 25.536-35.088 9.402c-8.287-18.164-25.221-31.576-45.517-34.938v-36.321c36.929 3.799 67.775 28.402 80.605 61.857zm-165.866-26.49 25.668 25.668c-7.169 10-11.406 22.236-11.406 35.451 0 7.537 1.383 14.754 3.894 21.423l-31.445 18.155c-5.426-12.092-8.449-25.488-8.449-39.578 0-23.148 8.155-44.425 21.738-61.119zm-3.259 118.001 31.432-18.147c5.879 7.135 13.353 12.901 21.861 16.783l-9.402 35.088c-17.699-6.788-32.917-18.618-43.891-33.724zm78.521 40.119c-5.21 0-10.324-.418-15.314-1.213l9.399-35.079c1.947.188 3.918.292 5.914.292 18.941 0 35.892-8.678 47.089-22.266l31.432 18.147c-17.645 24.291-46.266 40.119-78.52 40.119z"/><path id="XMLID_1430_" d="m494.75 403.332c0-12.849-8.122-23.834-19.5-28.099v-146.233c0-61.168-23.82-118.675-67.072-161.927-43.253-43.253-100.76-67.073-161.928-67.073-50.981 0-99.233 16.394-139.538 47.409-4.377 3.368-5.195 9.647-1.827 14.024 3.367 4.376 9.646 5.195 14.024 1.827 36.777-28.301 80.811-43.26 127.341-43.26 115.243 0 209 93.757 209 209v144.332h-36v-144.332c0-95.393-77.607-173-173-173s-173 77.607-173 173 77.607 173 173 173c66.276 0 123.957-37.469 153-92.33v61.687c-39.475 42.393-95.012 66.643-153 66.643-115.243 0-209-93.757-209-209 0-35.329 8.975-70.24 25.955-100.956 2.672-4.834.919-10.918-3.914-13.59-4.832-2.671-10.917-.919-13.59 3.914-18.613 33.671-28.451 71.927-28.451 110.632 0 61.168 23.82 118.675 67.073 161.927 43.252 43.253 100.759 67.073 161.927 67.073 48.989 0 96.382-15.795 135.343-44.314 3.09 8.379 9.822 15.004 18.263 17.962l5.424 71.112c.397 5.213 4.743 9.24 9.971 9.24h44c5.228 0 9.573-4.027 9.971-9.24l5.424-71.112c11.692-4.098 20.104-15.24 20.104-28.316zm-248.5-21.332c-84.364 0-153-68.636-153-153s68.636-153 153-153 153 68.636 153 153-68.636 153-153 153zm218.5 31.332h-55c-5.514 0-10-4.486-10-10s4.486-10 10-10h55c5.514 0 10 4.486 10 10 0 5.515-4.486 10-10 10zm-14.767 78.668h-25.467l-4.475-58.668h34.416z"/><path id="XMLID_1433_" d="m80.15 96.27c2.63 0 5.21-1.07 7.07-2.93s2.93-4.44 2.93-7.07-1.07-5.21-2.93-7.07-4.44-2.93-7.07-2.93-5.21 1.07-7.07 2.93-2.93 4.44-2.93 7.07 1.07 5.21 2.93 7.07 4.44 2.93 7.07 2.93z"/></g></g></svg>