<?xml version="1.0" encoding="UTF-8"?>
<svg width="480" height="480" enable-background="new 0 0 512 512" version="1.1" viewBox="0 0 480 480" xmlns="http://www.w3.org/2000/svg">
 <circle cx="240" cy="240" r="240" fill="#d50000" stroke-linejoin="round" stroke-width="20"/>
 <g transform="matrix(.70468 0 0 .70468 30.039 74.067)" fill="#fff">
  <g fill="#fff">
   <path d="m450.64 68.639c1.876 1.875 4.42 2.929 7.071 2.929 2.652 0 5.196-1.054 7.071-2.929l28.283-28.285c3.905-3.905 3.905-10.237 0-14.142-16.904-16.903-39.377-26.212-63.28-26.212h-101c-15.824 0-29.223 10.56-33.537 25h-64.13c-2.652 0-5.196 1.054-7.071 2.929l-29.012 29.012-3.489-3.489c-3.612-3.612-8.415-5.602-13.524-5.602s-9.911 1.989-13.524 5.602l-15.018 15.018c-3.25-1.841-7.352-1.751-10.562 0.438l-118.56 80.845c-2.46 1.677-4.045 4.364-4.323 7.329-0.278 2.964 0.78 5.899 2.885 8.004l82.024 82.024c1.884 1.884 4.432 2.929 7.071 2.929 0.31 0 0.622-0.015 0.934-0.044 2.965-0.278 5.651-1.863 7.329-4.323l80.846-118.56c2.189-3.21 2.28-7.312 0.438-10.562l15.018-15.017c7.457-7.457 7.457-19.59 0-27.047l-3.404-3.404 26.082-26.083h59.988c0.847 2.835 2.04 5.521 3.537 8.006v38.714c-11.639 4.128-20 15.243-20 28.28v22.31c-29.173 3.012-52.001 27.734-52.001 57.69v82c0 5.523 4.477 10 10 10s10-4.477 10-10v-82c0-20.953 17.047-38 38.001-38h88c20.953 0 38 17.047 38 38v254c0 20.953-17.047 38-38 38h-88c-20.953 0-38.001-17.047-38.001-38v-82c0-5.523-4.477-10-10-10s-10 4.477-10 10v82c0 31.981 26.019 58 58.001 58h88c31.981 0 58-26.019 58-58v-254c0-29.956-22.827-54.678-52-57.69v-20.768l59.351 24.704c1.229 0.512 2.536 0.768 3.843 0.768 1.298 0 2.597-0.253 3.819-0.758 2.454-1.014 4.404-2.962 5.42-5.416l15.303-36.957c1.015-2.45 1.015-5.204-1e-3 -7.654s-2.962-4.396-5.413-5.411l-74.429-30.818h43.103c7.877 0 15.284 3.068 20.855 8.639zm-344.08 155.8-64.957-64.957 101.74-69.378 32.594 32.593zm77.124-122.28-19.799-19.799 14.142-14.142 19.799 19.799zm287.67-68.37-14.351 14.352c-8.008-5.294-17.393-8.136-27.214-8.136h-66.359c0.235-1.634 0.363-3.302 0.363-5 0-5.365-1.217-10.451-3.384-15h69.38c15.186 0 29.627 4.837 41.565 13.784zm-152.56 34.753c3.171 0.947 6.526 1.463 10 1.463s6.829-0.516 10-1.463v21.463h-20zm10-48.537c8.271 0 15 6.729 15 15s-6.729 15-15 15c-8.272 0-15-6.729-15-15s6.728-15 15-15zm-30 122v-22c0-5.514 4.486-10 10-10h40c5.514 0 10 4.486 10 10v22zm137.79-18.068-77.787-32.378v-21.457l85.431 35.374z"/>
   <path d="m236.79 337c2.63 0 5.21-1.07 7.07-2.93 1.87-1.86 2.93-4.44 2.93-7.07s-1.06-5.21-2.93-7.07c-1.86-1.86-4.43-2.93-7.07-2.93-2.63 0-5.21 1.07-7.07 2.93s-2.93 4.44-2.93 7.07 1.07 5.21 2.93 7.07 4.44 2.93 7.07 2.93z"/>
  </g>
 </g>
</svg>
