<?xml version="1.0" encoding="UTF-8" standalone="no"?>
<svg
   xmlns:dc="http://purl.org/dc/elements/1.1/"
   xmlns:cc="http://creativecommons.org/ns#"
   xmlns:rdf="http://www.w3.org/1999/02/22-rdf-syntax-ns#"
   xmlns:svg="http://www.w3.org/2000/svg"
   xmlns="http://www.w3.org/2000/svg"
   xmlns:sodipodi="http://sodipodi.sourceforge.net/DTD/sodipodi-0.dtd"
   xmlns:inkscape="http://www.inkscape.org/namespaces/inkscape"
   inkscape:version="1.0 (4035a4fb49, 2020-05-01)"
   sodipodi:docname="fire-extinguisher.svg"
   version="1.1"
   width="480"
   viewBox="0 0 480 480"
   height="480"
   enable-background="new 0 0 512 512"
   id="Capa_1">
  <metadata
     id="metadata11">
    <rdf:RDF>
      <cc:Work
         rdf:about="">
        <dc:format>image/svg+xml</dc:format>
        <dc:type
           rdf:resource="http://purl.org/dc/dcmitype/StillImage" />
        <dc:title></dc:title>
      </cc:Work>
    </rdf:RDF>
  </metadata>
  <defs
     id="defs9" />
  <sodipodi:namedview
     inkscape:current-layer="Capa_1"
     inkscape:window-maximized="1"
     inkscape:window-y="0"
     inkscape:window-x="1964"
     inkscape:cy="256"
     inkscape:cx="256"
     inkscape:zoom="1.3964844"
     showgrid="false"
     id="namedview7"
     inkscape:window-height="1051"
     inkscape:window-width="1876"
     inkscape:pageshadow="2"
     inkscape:pageopacity="0"
     guidetolerance="10"
     gridtolerance="10"
     objecttolerance="10"
     borderopacity="1"
     bordercolor="#666666"
     pagecolor="#ffffff" />
  <circle
     r="240"
     cy="240"
     cx="240"
     id="path836"
     style="fill:#d50000;fill-opacity:1;stroke-width:20;stroke-linejoin:round" />
  <g
     style="fill:#ffffff"
     transform="matrix(0.7046849,0,0,0.7046849,30.039205,74.066692)"
     id="XMLID_1296_">
    <g
       style="fill:#ffffff"
       id="XMLID_1663_">
      <path
         style="fill:#ffffff"
         d="m 450.644,68.639 c 1.876,1.875 4.42,2.929 7.071,2.929 2.652,0 5.196,-1.054 7.071,-2.929 l 28.283,-28.285 c 3.905,-3.905 3.905,-10.237 0,-14.142 C 476.165,9.309 453.692,0 429.789,0 H 328.793 C 312.969,0 299.57,10.56 295.256,25 h -64.13 c -2.652,0 -5.196,1.054 -7.071,2.929 l -29.012,29.012 -3.489,-3.489 c -3.612,-3.612 -8.415,-5.602 -13.524,-5.602 -5.109,0 -9.911,1.989 -13.524,5.602 L 149.488,68.47 c -3.25,-1.841 -7.352,-1.751 -10.562,0.438 L 20.368,149.753 c -2.46,1.677 -4.045,4.364 -4.323,7.329 -0.278,2.964 0.78,5.899 2.885,8.004 l 82.024,82.024 c 1.884,1.884 4.432,2.929 7.071,2.929 0.31,0 0.622,-0.015 0.934,-0.044 2.965,-0.278 5.651,-1.863 7.329,-4.323 l 80.846,-118.559 c 2.189,-3.21 2.28,-7.312 0.438,-10.562 l 15.018,-15.017 c 7.457,-7.457 7.457,-19.59 0,-27.047 L 209.186,71.083 235.268,45 h 59.988 c 0.847,2.835 2.04,5.521 3.537,8.006 V 91.72 c -11.639,4.128 -20,15.243 -20,28.28 v 22.31 c -29.173,3.012 -52.001,27.734 -52.001,57.69 v 82 c 0,5.523 4.477,10 10,10 5.523,0 10,-4.477 10,-10 v -82 c 0,-20.953 17.047,-38 38.001,-38 h 88 c 20.953,0 38,17.047 38,38 v 254 c 0,20.953 -17.047,38 -38,38 h -88 c -20.953,0 -38.001,-17.047 -38.001,-38 v -82 c 0,-5.523 -4.477,-10 -10,-10 -5.523,0 -10,4.477 -10,10 v 82 c 0,31.981 26.019,58 58.001,58 h 88 c 31.981,0 58,-26.019 58,-58 V 200 c 0,-29.956 -22.827,-54.678 -52,-57.69 v -20.768 l 59.351,24.704 c 1.229,0.512 2.536,0.768 3.843,0.768 1.298,0 2.597,-0.253 3.819,-0.758 2.454,-1.014 4.404,-2.962 5.42,-5.416 l 15.303,-36.957 c 1.015,-2.45 1.015,-5.204 -10e-4,-7.654 -1.016,-2.45 -2.962,-4.396 -5.413,-5.411 L 386.686,60 h 43.103 c 7.877,0 15.284,3.068 20.855,8.639 z M 106.563,224.435 41.606,159.478 143.348,90.1 175.942,122.693 Z M 183.687,102.154 163.888,82.355 178.03,68.213 197.829,88.012 Z M 471.354,33.784 457.003,48.136 C 448.995,42.842 439.61,40 429.789,40 H 363.43 c 0.235,-1.634 0.363,-3.302 0.363,-5 0,-5.365 -1.217,-10.451 -3.384,-15 h 69.38 c 15.186,0 29.627,4.837 41.565,13.784 z M 318.793,68.537 c 3.171,0.947 6.526,1.463 10,1.463 3.474,0 6.829,-0.516 10,-1.463 V 90 h -20 z m 10,-48.537 c 8.271,0 15,6.729 15,15 0,8.271 -6.729,15 -15,15 -8.272,0 -15,-6.729 -15,-15 0,-8.271 6.728,-15 15,-15 z m -30,122 v -22 c 0,-5.514 4.486,-10 10,-10 h 40 c 5.514,0 10,4.486 10,10 v 22 z M 436.58,123.932 358.793,91.554 V 70.097 l 85.431,35.374 z"
         id="XMLID_1755_" />
      <path
         style="fill:#ffffff"
         d="m 236.79,337 c 2.63,0 5.21,-1.07 7.07,-2.93 1.87,-1.86 2.93,-4.44 2.93,-7.07 0,-2.63 -1.06,-5.21 -2.93,-7.07 -1.86,-1.86 -4.43,-2.93 -7.07,-2.93 -2.63,0 -5.21,1.07 -7.07,2.93 -1.86,1.86 -2.93,4.44 -2.93,7.07 0,2.63 1.07,5.21 2.93,7.07 1.86,1.86 4.44,2.93 7.07,2.93 z"
         id="XMLID_1780_" />
    </g>
  </g>
</svg>
