<?xml version="1.0" encoding="UTF-8" standalone="no"?>
<svg
   xmlns:dc="http://purl.org/dc/elements/1.1/"
   xmlns:cc="http://creativecommons.org/ns#"
   xmlns:rdf="http://www.w3.org/1999/02/22-rdf-syntax-ns#"
   xmlns:svg="http://www.w3.org/2000/svg"
   xmlns="http://www.w3.org/2000/svg"
   xmlns:sodipodi="http://sodipodi.sourceforge.net/DTD/sodipodi-0.dtd"
   xmlns:inkscape="http://www.inkscape.org/namespaces/inkscape"
   inkscape:version="1.0 (4035a4fb49, 2020-05-01)"
   sodipodi:docname="fire-hose.svg"
   version="1.1"
   width="480"
   viewBox="0 0 480 480"
   height="480"
   enable-background="new 0 0 512 512"
   id="Capa_1">
  <metadata
     id="metadata12">
    <rdf:RDF>
      <cc:Work
         rdf:about="">
        <dc:format>image/svg+xml</dc:format>
        <dc:type
           rdf:resource="http://purl.org/dc/dcmitype/StillImage" />
        <dc:title></dc:title>
      </cc:Work>
    </rdf:RDF>
  </metadata>
  <defs
     id="defs10" />
  <sodipodi:namedview
     inkscape:current-layer="Capa_1"
     inkscape:window-maximized="1"
     inkscape:window-y="0"
     inkscape:window-x="1964"
     inkscape:cy="256"
     inkscape:cx="256"
     inkscape:zoom="1.3964844"
     showgrid="false"
     id="namedview8"
     inkscape:window-height="1051"
     inkscape:window-width="1876"
     inkscape:pageshadow="2"
     inkscape:pageopacity="0"
     guidetolerance="10"
     gridtolerance="10"
     objecttolerance="10"
     borderopacity="1"
     bordercolor="#666666"
     pagecolor="#ffffff" />
  <circle
     r="240"
     cy="240"
     cx="240"
     id="path837"
     style="fill:#d50000;fill-opacity:1;stroke-width:20;stroke-linejoin:round" />
  <g
     transform="matrix(0.71316952,0,0,0.71316952,57.428603,41.428603)"
     style="fill:#ffffff"
     id="XMLID_1228_">
    <g
       style="fill:#ffffff"
       id="XMLID_224_">
      <path
         style="fill:#ffffff"
         d="m 246.25,112 c -64.514,0 -117,52.486 -117,117 0,64.514 52.486,117 117,117 64.514,0 117,-52.486 117,-117 0,-64.514 -52.486,-117 -117,-117 z m 97,117 c 0,14.09 -3.023,27.486 -8.449,39.578 l -31.445,-18.154 c 2.51,-6.67 3.894,-13.887 3.894,-21.424 0,-1.995 -0.103,-3.967 -0.292,-5.914 l 35.079,-9.4 c 0.795,4.99 1.213,10.104 1.213,15.314 z m -138,0 c 0,-22.607 18.393,-41 41,-41 22.607,0 41,18.393 41,41 0,22.607 -18.393,41 -41,41 -22.607,0 -41,-18.393 -41,-41 z m 31,-60.166 c -9.375,1.553 -18.029,5.252 -25.451,10.573 l -25.668,-25.668 c 14.259,-11.602 31.861,-19.244 51.12,-21.225 v 36.32 z m 100.604,25.536 -35.088,9.402 c -8.287,-18.164 -25.221,-31.576 -45.517,-34.938 v -36.321 c 36.929,3.799 67.775,28.402 80.605,61.857 z m -165.866,-26.49 25.668,25.668 c -7.169,10 -11.406,22.236 -11.406,35.451 0,7.537 1.383,14.754 3.894,21.423 l -31.445,18.155 c -5.426,-12.092 -8.449,-25.488 -8.449,-39.578 0,-23.148 8.155,-44.425 21.738,-61.119 z m -3.259,118.001 31.432,-18.147 c 5.879,7.135 13.353,12.901 21.861,16.783 l -9.402,35.088 c -17.699,-6.788 -32.917,-18.618 -43.891,-33.724 z M 246.25,326 c -5.21,0 -10.324,-0.418 -15.314,-1.213 l 9.399,-35.079 c 1.947,0.188 3.918,0.292 5.914,0.292 18.941,0 35.892,-8.678 47.089,-22.266 l 31.432,18.147 C 307.125,310.172 278.504,326 246.25,326 Z"
         id="XMLID_1167_" />
      <path
         style="fill:#ffffff"
         d="m 494.75,403.332 c 0,-12.849 -8.122,-23.834 -19.5,-28.099 V 229 C 475.25,167.832 451.43,110.325 408.178,67.073 364.925,23.82 307.418,0 246.25,0 195.269,0 147.017,16.394 106.712,47.409 c -4.377,3.368 -5.195,9.647 -1.827,14.024 3.367,4.376 9.646,5.195 14.024,1.827 C 155.686,34.959 199.72,20 246.25,20 c 115.243,0 209,93.757 209,209 v 144.332 h -36 V 229 c 0,-95.393 -77.607,-173 -173,-173 -95.393,0 -173,77.607 -173,173 0,95.393 77.607,173 173,173 66.276,0 123.957,-37.469 153,-92.33 v 61.687 C 359.775,413.75 304.238,438 246.25,438 c -115.243,0 -209,-93.757 -209,-209 0,-35.329 8.975,-70.24 25.955,-100.956 2.672,-4.834 0.919,-10.918 -3.914,-13.59 -4.832,-2.671 -10.917,-0.919 -13.59,3.914 C 27.088,152.039 17.25,190.295 17.25,229 c 0,61.168 23.82,118.675 67.073,161.927 C 127.575,434.18 185.082,458 246.25,458 c 48.989,0 96.382,-15.795 135.343,-44.314 3.09,8.379 9.822,15.004 18.263,17.962 l 5.424,71.112 c 0.397,5.213 4.743,9.24 9.971,9.24 h 44 c 5.228,0 9.573,-4.027 9.971,-9.24 l 5.424,-71.112 c 11.692,-4.098 20.104,-15.24 20.104,-28.316 z M 246.25,382 c -84.364,0 -153,-68.636 -153,-153 0,-84.364 68.636,-153 153,-153 84.364,0 153,68.636 153,153 0,84.364 -68.636,153 -153,153 z m 218.5,31.332 h -55 c -5.514,0 -10,-4.486 -10,-10 0,-5.514 4.486,-10 10,-10 h 55 c 5.514,0 10,4.486 10,10 0,5.515 -4.486,10 -10,10 z M 449.983,492 h -25.467 l -4.475,-58.668 h 34.416 z"
         id="XMLID_1430_" />
      <path
         style="fill:#ffffff"
         d="m 80.15,96.27 c 2.63,0 5.21,-1.07 7.07,-2.93 1.86,-1.86 2.93,-4.44 2.93,-7.07 0,-2.63 -1.07,-5.21 -2.93,-7.07 -1.86,-1.86 -4.44,-2.93 -7.07,-2.93 -2.63,0 -5.21,1.07 -7.07,2.93 -1.86,1.86 -2.93,4.44 -2.93,7.07 0,2.63 1.07,5.21 2.93,7.07 1.86,1.86 4.44,2.93 7.07,2.93 z"
         id="XMLID_1433_" />
    </g>
  </g>
</svg>
