<?xml version="1.0" encoding="UTF-8"?>
<svg width="480" height="480" enable-background="new 0 0 512 512" version="1.1" viewBox="0 0 480 480" xmlns="http://www.w3.org/2000/svg">
 <circle cx="240" cy="240" r="240" fill="#2e7d32" stroke-linejoin="round" stroke-width="20"/>
 <g transform="matrix(.61478 0 0 .61478 82.616 82.616)" fill="#fff">
  <g fill="#fff">
   <path d="m251.96 199.4c2.57 0 5.141-0.985 7.096-2.954l6.189-6.231c3.892-3.918 3.869-10.25-0.049-14.142-3.919-3.891-10.249-3.87-14.143 0.049l-6.189 6.231c-3.892 3.919-3.869 10.25 0.049 14.142 1.951 1.938 4.499 2.905 7.047 2.905z"/>
   <path d="m287.05 234.73c2.57 0 5.141-0.985 7.096-2.954l6.188-6.231c3.892-3.918 3.869-10.25-0.049-14.142-3.92-3.891-10.25-3.87-14.143 0.049l-6.189 6.231c-3.892 3.918-3.869 10.25 0.049 14.142 1.953 1.938 4.501 2.905 7.048 2.905z"/>
   <path d="m321.24 246.8-6.189 6.231c-3.892 3.918-3.869 10.25 0.049 14.142 1.951 1.937 4.499 2.904 7.047 2.904 2.57 0 5.141-0.985 7.096-2.954l6.189-6.231c3.892-3.919 3.869-10.25-0.049-14.142-3.921-3.89-10.251-3.869-14.143 0.05z"/>
   <path d="m217.81 233.78c2.57 0 5.141-0.985 7.095-2.953l6.189-6.231c3.893-3.919 3.871-10.251-0.048-14.142-3.918-3.892-10.251-3.871-14.142 0.047l-6.189 6.232c-3.893 3.918-3.871 10.25 0.048 14.142 1.951 1.937 4.499 2.905 7.047 2.905z"/>
   <path d="m252.9 269.12c2.57 0 5.141-0.985 7.095-2.953l6.189-6.232c3.893-3.918 3.871-10.25-0.048-14.142-3.917-3.892-10.25-3.871-14.142 0.047l-6.19 6.232c-3.892 3.918-3.871 10.25 0.048 14.142 1.951 1.938 4.5 2.906 7.048 2.906z"/>
   <path d="m287.1 281.18-6.189 6.231c-3.893 3.918-3.871 10.25 0.048 14.142 1.95 1.938 4.499 2.905 7.047 2.905 2.57 0 5.141-0.985 7.095-2.953l6.189-6.232c3.893-3.918 3.871-10.251-0.048-14.142-3.917-3.891-10.25-3.87-14.142 0.049z"/>
   <path d="m182.75 244.88-6.188 6.231c-3.892 3.919-3.869 10.25 0.049 14.142 1.951 1.937 4.499 2.904 7.047 2.904 2.57 0 5.141-0.985 7.096-2.954l6.189-6.231c3.892-3.918 3.869-10.25-0.049-14.142-3.921-3.891-10.251-3.869-14.144 0.05z"/>
   <path d="m217.85 280.22-6.189 6.232c-3.892 3.918-3.869 10.25 0.049 14.142 1.951 1.937 4.499 2.904 7.047 2.904 2.57 0 5.141-0.985 7.096-2.954l6.189-6.231c3.892-3.919 3.869-10.25-0.049-14.142-3.92-3.892-10.25-3.871-14.143 0.049z"/>
   <path d="m252.95 315.56-6.188 6.231c-3.892 3.919-3.869 10.25 0.049 14.142 1.951 1.937 4.499 2.904 7.047 2.904 2.57 0 5.141-0.985 7.096-2.954l6.189-6.231c3.892-3.919 3.869-10.25-0.049-14.142-3.921-3.891-10.252-3.87-14.144 0.05z"/>
   <path d="m479.17 329.2-72.701-73.201 22.049-22.2c0.015-0.015 0.03-0.031 0.045-0.047l50.606-50.953c41.457-41.744 41.457-109.66 0-151.41-20.105-20.244-46.841-31.392-75.284-31.392-28.441 0-55.178 11.148-75.283 31.392l-72.603 73.103-72.603-73.103c-19.656-19.791-45.654-30.69-73.207-30.689-28.407 0-55.379 11.405-75.946 32.114-20.139 20.275-31.452 46.857-31.856 74.847-0.408 28.276 10.402 54.96 30.44 75.136l72.7 73.2-72.7 73.2c-41.457 41.744-41.457 109.66 0 151.41 20.106 20.244 46.843 31.392 75.285 31.392 28.441 0 55.178-11.148 75.283-31.392l72.603-73.103 72.604 73.103c20.106 20.244 46.842 31.392 75.284 31.392 28.441 0 55.178-11.149 75.282-31.392 41.46-41.743 41.46-109.66 2e-3 -151.41zm-136.38-283.72c16.322-16.434 38.018-25.485 61.092-25.485 23.073 0 44.77 9.051 61.093 25.486 33.739 33.972 33.739 89.248-1e-3 123.22l-72.316 72.813c-5e-3 5e-3 -0.01 0.011-0.016 0.016l-0.271 0.273-122.28-123.12zm-295.78 123.22c-33.52-33.75-32.898-87.249 1.414-121.8 16.784-16.9 38.716-26.208 61.755-26.208 22.185 0 43.144 8.801 59.016 24.783l72.701 73.2-122.28 123.12zm122.18 297.81c-16.323 16.434-38.019 25.485-61.093 25.485-23.073 0-44.769-9.051-61.093-25.486-33.739-33.972-33.739-89.248 1e-3 -123.22l72.603-73.103 122.28 123.12zm295.77 0c-16.322 16.434-38.018 25.485-61.093 25.485-23.073 0-44.77-9.051-61.092-25.485l-72.701-73.201 33.302-33.53c3.893-3.918 3.871-10.25-0.048-14.142-3.92-3.892-10.251-3.87-14.142 0.048l-33.205 33.433-122.28-123.12 122.28-123.12 122.28 123.12-25.146 25.319c-3.892 3.918-3.87 10.25 0.049 14.142 1.951 1.938 4.499 2.905 7.047 2.905 2.57 0 5.141-0.985 7.096-2.953l25.049-25.221 72.603 73.103c33.74 33.971 33.74 89.248 0 123.22z"/>
   <path d="m337.37 316.86c-1.614-3.937-5.707-6.455-9.949-6.148-4.146 0.3-7.753 3.231-8.896 7.225-1.152 4.024 0.399 8.434 3.794 10.874 3.343 2.403 7.947 2.467 11.371 0.189 3.917-2.606 5.487-7.801 3.68-12.14z"/>
  </g>
 </g>
</svg>
