<?xml version="1.0" encoding="UTF-8" standalone="no"?>
<svg
   xmlns:dc="http://purl.org/dc/elements/1.1/"
   xmlns:cc="http://creativecommons.org/ns#"
   xmlns:rdf="http://www.w3.org/1999/02/22-rdf-syntax-ns#"
   xmlns:svg="http://www.w3.org/2000/svg"
   xmlns="http://www.w3.org/2000/svg"
   xmlns:sodipodi="http://sodipodi.sourceforge.net/DTD/sodipodi-0.dtd"
   xmlns:inkscape="http://www.inkscape.org/namespaces/inkscape"
   inkscape:version="1.0 (4035a4fb49, 2020-05-01)"
   sodipodi:docname="first-aid.svg"
   version="1.1"
   width="480"
   viewBox="0 0 480 480"
   height="480"
   enable-background="new 0 0 512 512"
   id="Capa_1">
  <metadata
     id="metadata33">
    <rdf:RDF>
      <cc:Work
         rdf:about="">
        <dc:format>image/svg+xml</dc:format>
        <dc:type
           rdf:resource="http://purl.org/dc/dcmitype/StillImage" />
        <dc:title></dc:title>
      </cc:Work>
    </rdf:RDF>
  </metadata>
  <defs
     id="defs31" />
  <sodipodi:namedview
     inkscape:current-layer="Capa_1"
     inkscape:window-maximized="1"
     inkscape:window-y="0"
     inkscape:window-x="1964"
     inkscape:cy="256"
     inkscape:cx="256"
     inkscape:zoom="1.3964844"
     showgrid="false"
     id="namedview29"
     inkscape:window-height="1051"
     inkscape:window-width="1876"
     inkscape:pageshadow="2"
     inkscape:pageopacity="0"
     guidetolerance="10"
     gridtolerance="10"
     objecttolerance="10"
     borderopacity="1"
     bordercolor="#666666"
     pagecolor="#ffffff" />
  <circle
     r="240"
     cy="240"
     cx="240"
     id="path858"
     style="fill:#2e7d32;stroke-width:20;stroke-linejoin:round;fill-opacity:1" />
  <g
     transform="matrix(0.61478101,0,0,0.61478101,82.616215,82.616061)"
     style="fill:#ffffff"
     id="g26">
    <g
       style="fill:#ffffff"
       id="g24">
      <path
         style="fill:#ffffff"
         id="path2"
         d="m 251.955,199.395 c 2.57,0 5.141,-0.985 7.096,-2.954 l 6.189,-6.231 c 3.892,-3.918 3.869,-10.25 -0.049,-14.142 -3.919,-3.891 -10.249,-3.87 -14.143,0.049 l -6.189,6.231 c -3.892,3.919 -3.869,10.25 0.049,14.142 1.951,1.938 4.499,2.905 7.047,2.905 z" />
      <path
         style="fill:#ffffff"
         id="path4"
         d="m 287.052,234.734 c 2.57,0 5.141,-0.985 7.096,-2.954 l 6.188,-6.231 c 3.892,-3.918 3.869,-10.25 -0.049,-14.142 -3.92,-3.891 -10.25,-3.87 -14.143,0.049 l -6.189,6.231 c -3.892,3.918 -3.869,10.25 0.049,14.142 1.953,1.938 4.501,2.905 7.048,2.905 z" />
      <path
         style="fill:#ffffff"
         id="path6"
         d="m 321.243,246.795 -6.189,6.231 c -3.892,3.918 -3.869,10.25 0.049,14.142 1.951,1.937 4.499,2.904 7.047,2.904 2.57,0 5.141,-0.985 7.096,-2.954 l 6.189,-6.231 c 3.892,-3.919 3.869,-10.25 -0.049,-14.142 -3.921,-3.89 -10.251,-3.869 -14.143,0.05 z" />
      <path
         style="fill:#ffffff"
         id="path8"
         d="m 217.807,233.777 c 2.57,0 5.141,-0.985 7.095,-2.953 l 6.189,-6.231 c 3.893,-3.919 3.871,-10.251 -0.048,-14.142 -3.918,-3.892 -10.251,-3.871 -14.142,0.047 l -6.189,6.232 c -3.893,3.918 -3.871,10.25 0.048,14.142 1.951,1.937 4.499,2.905 7.047,2.905 z" />
      <path
         style="fill:#ffffff"
         id="path10"
         d="m 252.905,269.116 c 2.57,0 5.141,-0.985 7.095,-2.953 l 6.189,-6.232 c 3.893,-3.918 3.871,-10.25 -0.048,-14.142 -3.917,-3.892 -10.25,-3.871 -14.142,0.047 l -6.19,6.232 c -3.892,3.918 -3.871,10.25 0.048,14.142 1.951,1.938 4.5,2.906 7.048,2.906 z" />
      <path
         style="fill:#ffffff"
         id="path12"
         d="m 287.097,281.176 -6.189,6.231 c -3.893,3.918 -3.871,10.25 0.048,14.142 1.95,1.938 4.499,2.905 7.047,2.905 2.57,0 5.141,-0.985 7.095,-2.953 l 6.189,-6.232 c 3.893,-3.918 3.871,-10.251 -0.048,-14.142 -3.917,-3.891 -10.25,-3.87 -14.142,0.049 z" />
      <path
         style="fill:#ffffff"
         id="path14"
         d="m 182.754,244.881 -6.188,6.231 c -3.892,3.919 -3.869,10.25 0.049,14.142 1.951,1.937 4.499,2.904 7.047,2.904 2.57,0 5.141,-0.985 7.096,-2.954 l 6.189,-6.231 c 3.892,-3.918 3.869,-10.25 -0.049,-14.142 -3.921,-3.891 -10.251,-3.869 -14.144,0.05 z" />
      <path
         style="fill:#ffffff"
         id="path16"
         d="m 217.851,280.22 -6.189,6.232 c -3.892,3.918 -3.869,10.25 0.049,14.142 1.951,1.937 4.499,2.904 7.047,2.904 2.57,0 5.141,-0.985 7.096,-2.954 l 6.189,-6.231 c 3.892,-3.919 3.869,-10.25 -0.049,-14.142 -3.92,-3.892 -10.25,-3.871 -14.143,0.049 z" />
      <path
         style="fill:#ffffff"
         id="path18"
         d="m 252.949,315.559 -6.188,6.231 c -3.892,3.919 -3.869,10.25 0.049,14.142 1.951,1.937 4.499,2.904 7.047,2.904 2.57,0 5.141,-0.985 7.096,-2.954 l 6.189,-6.231 c 3.892,-3.919 3.869,-10.25 -0.049,-14.142 -3.921,-3.891 -10.252,-3.87 -14.144,0.05 z" />
      <path
         style="fill:#ffffff"
         id="path20"
         d="M 479.171,329.201 406.47,256 428.519,233.8 c 0.015,-0.015 0.03,-0.031 0.045,-0.047 L 479.17,182.8 c 41.457,-41.744 41.457,-109.665 0,-151.408 C 459.065,11.148 432.329,0 403.886,0 375.445,0 348.708,11.148 328.603,31.392 L 256,104.495 183.397,31.392 C 163.741,11.601 137.743,0.702 110.19,0.703 81.783,0.703 54.811,12.108 34.244,32.817 14.105,53.092 2.792,79.674 2.388,107.664 1.98,135.94 12.79,162.624 32.828,182.8 l 72.7,73.2 -72.7,73.2 c -41.457,41.744 -41.457,109.665 0,151.408 20.106,20.244 46.843,31.392 75.285,31.392 28.441,0 55.178,-11.148 75.283,-31.392 l 72.603,-73.103 72.604,73.103 c 20.106,20.244 46.842,31.392 75.284,31.392 28.441,0 55.178,-11.149 75.282,-31.392 41.46,-41.743 41.46,-109.664 0.002,-151.407 z M 342.795,45.485 C 359.117,29.051 380.813,20 403.887,20 c 23.073,0 44.77,9.051 61.093,25.486 33.739,33.972 33.739,89.248 -0.001,123.22 l -72.316,72.813 c -0.005,0.005 -0.01,0.011 -0.016,0.016 l -0.271,0.273 L 270.094,118.686 Z M 47.02,168.706 C 13.5,134.956 14.122,81.457 48.434,46.91 65.218,30.01 87.15,20.702 110.189,20.702 c 22.185,0 43.144,8.801 59.016,24.783 l 72.701,73.2 -122.283,123.124 z M 169.205,466.515 C 152.882,482.949 131.186,492 108.112,492 85.039,492 63.343,482.949 47.019,466.514 13.28,432.542 13.28,377.266 47.02,343.294 l 72.603,-73.103 122.281,123.123 z m 295.774,0 C 448.657,482.949 426.961,492 403.886,492 c -23.073,0 -44.77,-9.051 -61.092,-25.485 l -72.701,-73.201 33.302,-33.53 c 3.893,-3.918 3.871,-10.25 -0.048,-14.142 -3.92,-3.892 -10.251,-3.87 -14.142,0.048 L 256,379.123 133.718,256 256,132.877 378.281,256 353.135,281.319 c -3.892,3.918 -3.87,10.25 0.049,14.142 1.951,1.938 4.499,2.905 7.047,2.905 2.57,0 5.141,-0.985 7.096,-2.953 l 25.049,-25.221 72.603,73.103 c 33.74,33.971 33.74,89.248 0,123.22 z" />
      <path
         style="fill:#ffffff"
         id="path22"
         d="m 337.37,316.86 c -1.614,-3.937 -5.707,-6.455 -9.949,-6.148 -4.146,0.3 -7.753,3.231 -8.896,7.225 -1.152,4.024 0.399,8.434 3.794,10.874 3.343,2.403 7.947,2.467 11.371,0.189 3.917,-2.606 5.487,-7.801 3.68,-12.14 z" />
    </g>
  </g>
</svg>
