<?xml version="1.0" encoding="iso-8859-1"?>
<!-- Generator: Adobe Illustrator 19.0.0, SVG Export Plug-In . SVG Version: 6.00 Build 0)  -->
<svg version="1.1" id="Capa_1" xmlns="http://www.w3.org/2000/svg" xmlns:xlink="http://www.w3.org/1999/xlink" x="0px" y="0px"
	 viewBox="0 0 480 480" style="enable-background:new 0 0 480 480;" xml:space="preserve">
<g>
	<g>
		<path d="M108,40c-26.51,0-48,21.49-48,48c0.026,26.499,21.501,47.974,48,48c26.51,0,48-21.49,48-48S134.51,40,108,40z M108,120
			c-17.673,0-32-14.327-32-32s14.327-32,32-32s32,14.327,32,32S125.673,120,108,120z"/>
	</g>
</g>
<g>
	<g>
		<path d="M195.664,317.704l-48-160C146.65,154.319,143.534,152,140,152H76c-3.534,0-6.65,2.319-7.664,5.704l-48,160
			c-0.728,2.432-0.259,5.065,1.264,7.096c1.511,2.014,3.882,3.2,6.4,3.2h32v104c0,4.418,3.582,8,8,8h80c4.418,0,8-3.582,8-8V328h32
			c4.418,0,8-3.581,8.001-7.999C196.001,319.223,195.887,318.449,195.664,317.704z M148,312c-4.418,0-8,3.582-8,8v104h-24V312h-16
			v112H76V320c0-4.418-3.582-8-8-8H38.752l43.2-144h52.096l43.2,144H148z"/>
	</g>
</g>
<g>
	<g>
		<path d="M380,40c-26.51,0-48,21.49-48,48s21.49,48,48,48c26.499-0.026,47.974-21.501,48-48C428,61.49,406.51,40,380,40z M380,120
			c-17.673,0-32-14.327-32-32s14.327-32,32-32c17.673,0,32,14.327,32,32S397.673,120,380,120z"/>
	</g>
</g>
<g>
	<g>
		<path d="M404,152h-48c-30.913,0.035-55.965,25.087-56,56v112c0,4.418,3.582,8,8,8h24v104c0,4.418,3.582,8,8,8h80
			c4.418,0,8-3.582,8-8V328h24c4.418,0,8-3.582,8-8V208C459.965,177.087,434.914,152.035,404,152z M444,312h-16v-96h-16v208h-24V312
			h-16v112h-24V216h-16v96h-16V208c0.026-22.08,17.92-39.974,40-40h48c22.08,0.026,39.974,17.92,40,40V312z"/>
	</g>
</g>
<g>
	<g>
		<rect x="236" width="16" height="480"/>
	</g>
</g>
<g>
</g>
<g>
</g>
<g>
</g>
<g>
</g>
<g>
</g>
<g>
</g>
<g>
</g>
<g>
</g>
<g>
</g>
<g>
</g>
<g>
</g>
<g>
</g>
<g>
</g>
<g>
</g>
<g>
</g>
</svg>
