<?xml version="1.0" encoding="UTF-8"?>
<svg enable-background="new 0 0 480 480" version="1.1" viewBox="0 0 480 480" xml:space="preserve" xmlns="http://www.w3.org/2000/svg">




















<circle cx="240" cy="240" r="240" fill="#d81b60" stroke-linejoin="round" stroke-width="20"/><g transform="translate(132)" fill="#fff">
	<g fill="#fff">
		<path d="m108 40c-26.51 0-48 21.49-48 48 0.026 26.499 21.501 47.974 48 48 26.51 0 48-21.49 48-48s-21.49-48-48-48zm0 80c-17.673 0-32-14.327-32-32s14.327-32 32-32 32 14.327 32 32-14.327 32-32 32z" fill="#fff"/>
	</g>

	<g fill="#fff">
		<path d="m195.66 317.7-48-160c-1.014-3.385-4.13-5.704-7.664-5.704h-64c-3.534 0-6.65 2.319-7.664 5.704l-48 160c-0.728 2.432-0.259 5.065 1.264 7.096 1.511 2.014 3.882 3.2 6.4 3.2h32v104c0 4.418 3.582 8 8 8h80c4.418 0 8-3.582 8-8v-104h32c4.418 0 8-3.581 8.001-7.999 0-0.778-0.114-1.552-0.337-2.297zm-47.664-5.704c-4.418 0-8 3.582-8 8v104h-24v-112h-16v112h-24v-104c0-4.418-3.582-8-8-8h-29.248l43.2-144h52.096l43.2 144z" fill="#fff"/>
	</g>
</g></svg>
