<?xml version="1.0" encoding="UTF-8" standalone="no"?>
<svg
   xmlns:dc="http://purl.org/dc/elements/1.1/"
   xmlns:cc="http://creativecommons.org/ns#"
   xmlns:rdf="http://www.w3.org/1999/02/22-rdf-syntax-ns#"
   xmlns:svg="http://www.w3.org/2000/svg"
   xmlns="http://www.w3.org/2000/svg"
   xmlns:sodipodi="http://sodipodi.sourceforge.net/DTD/sodipodi-0.dtd"
   xmlns:inkscape="http://www.inkscape.org/namespaces/inkscape"
   inkscape:version="1.0 (4035a4fb49, 2020-05-01)"
   sodipodi:docname="toilet-male.svg"
   xml:space="preserve"
   style="enable-background:new 0 0 480 480;"
   viewBox="0 0 480 480"
   y="0px"
   x="0px"
   id="Capa_1"
   version="1.1"><metadata
   id="metadata67"><rdf:RDF><cc:Work
       rdf:about=""><dc:format>image/svg+xml</dc:format><dc:type
         rdf:resource="http://purl.org/dc/dcmitype/StillImage" /><dc:title></dc:title></cc:Work></rdf:RDF></metadata><defs
   id="defs65" /><sodipodi:namedview
   inkscape:current-layer="Capa_1"
   inkscape:window-maximized="1"
   inkscape:window-y="0"
   inkscape:window-x="1964"
   inkscape:cy="240"
   inkscape:cx="240"
   inkscape:zoom="1.4895833"
   showgrid="false"
   id="namedview63"
   inkscape:window-height="1051"
   inkscape:window-width="1876"
   inkscape:pageshadow="2"
   inkscape:pageopacity="0"
   guidetolerance="10"
   gridtolerance="10"
   objecttolerance="10"
   borderopacity="1"
   bordercolor="#666666"
   pagecolor="#ffffff" />





<g
   id="g32">
</g>
<g
   id="g34">
</g>
<g
   id="g36">
</g>
<g
   id="g38">
</g>
<g
   id="g40">
</g>
<g
   id="g42">
</g>
<g
   id="g44">
</g>
<g
   id="g46">
</g>
<g
   id="g48">
</g>
<g
   id="g50">
</g>
<g
   id="g52">
</g>
<g
   id="g54">
</g>
<g
   id="g56">
</g>
<g
   id="g58">
</g>
<g
   id="g60">
</g>
<circle
   r="240"
   cy="240"
   cx="240"
   id="path77"
   style="fill:#303f9f;fill-opacity:1;stroke:none;stroke-width:20;stroke-linejoin:round;stroke-miterlimit:4;stroke-dasharray:none" /><g
   style="fill:#ffffff"
   transform="matrix(0.98584715,0,0,0.98584715,-134.62192,3.396684)"
   id="g75"><g
     style="fill:#ffffff"
     id="g18">
	<g
   style="fill:#ffffff"
   id="g16">
		<path
   style="fill:#ffffff"
   d="m 380,40 c -26.51,0 -48,21.49 -48,48 0,26.51 21.49,48 48,48 26.499,-0.026 47.974,-21.501 48,-48 0,-26.51 -21.49,-48 -48,-48 z m 0,80 c -17.673,0 -32,-14.327 -32,-32 0,-17.673 14.327,-32 32,-32 17.673,0 32,14.327 32,32 0,17.673 -14.327,32 -32,32 z"
   id="path14" />
	</g>
</g><g
     style="fill:#ffffff"
     id="g24">
	<g
   style="fill:#ffffff"
   id="g22">
		<path
   style="fill:#ffffff"
   d="m 404,152 h -48 c -30.913,0.035 -55.965,25.087 -56,56 v 112 c 0,4.418 3.582,8 8,8 h 24 v 104 c 0,4.418 3.582,8 8,8 h 80 c 4.418,0 8,-3.582 8,-8 V 328 h 24 c 4.418,0 8,-3.582 8,-8 V 208 c -0.035,-30.913 -25.086,-55.965 -56,-56 z m 40,160 H 428 V 216 H 412 V 424 H 388 V 312 H 372 V 424 H 348 V 216 h -16 v 96 H 316 V 208 c 0.026,-22.08 17.92,-39.974 40,-40 h 48 c 22.08,0.026 39.974,17.92 40,40 z"
   id="path20" />
	</g>
</g></g></svg>
