<?xml version="1.0" encoding="UTF-8" standalone="no"?>
<svg
   xmlns:dc="http://purl.org/dc/elements/1.1/"
   xmlns:cc="http://creativecommons.org/ns#"
   xmlns:rdf="http://www.w3.org/1999/02/22-rdf-syntax-ns#"
   xmlns:svg="http://www.w3.org/2000/svg"
   xmlns="http://www.w3.org/2000/svg"
   xmlns:sodipodi="http://sodipodi.sourceforge.net/DTD/sodipodi-0.dtd"
   xmlns:inkscape="http://www.inkscape.org/namespaces/inkscape"
   inkscape:version="1.0 (4035a4fb49, 2020-05-01)"
   sodipodi:docname="toilet-female.svg"
   xml:space="preserve"
   style="enable-background:new 0 0 480 480;"
   viewBox="0 0 480 480"
   y="0px"
   x="0px"
   id="Capa_1"
   version="1.1"><metadata
   id="metadata67"><rdf:RDF><cc:Work
       rdf:about=""><dc:format>image/svg+xml</dc:format><dc:type
         rdf:resource="http://purl.org/dc/dcmitype/StillImage" /><dc:title></dc:title></cc:Work></rdf:RDF></metadata><defs
   id="defs65" /><sodipodi:namedview
   inkscape:current-layer="Capa_1"
   inkscape:window-maximized="1"
   inkscape:window-y="0"
   inkscape:window-x="1964"
   inkscape:cy="240"
   inkscape:cx="240"
   inkscape:zoom="1.4895833"
   showgrid="false"
   id="namedview63"
   inkscape:window-height="1051"
   inkscape:window-width="1876"
   inkscape:pageshadow="2"
   inkscape:pageopacity="0"
   guidetolerance="10"
   gridtolerance="10"
   objecttolerance="10"
   borderopacity="1"
   bordercolor="#666666"
   pagecolor="#ffffff" />





<g
   id="g32">
</g>
<g
   id="g34">
</g>
<g
   id="g36">
</g>
<g
   id="g38">
</g>
<g
   id="g40">
</g>
<g
   id="g42">
</g>
<g
   id="g44">
</g>
<g
   id="g46">
</g>
<g
   id="g48">
</g>
<g
   id="g50">
</g>
<g
   id="g52">
</g>
<g
   id="g54">
</g>
<g
   id="g56">
</g>
<g
   id="g58">
</g>
<g
   id="g60">
</g>
<circle
   r="240"
   cy="240"
   cx="240"
   id="path900"
   style="fill:#d81b60;fill-opacity:1;stroke-width:20;stroke-linejoin:round" /><g
   transform="translate(131.9996)"
   style="fill:#ffffff"
   id="g898"><g
     style="fill:#ffffff"
     id="g6">
	<g
   style="fill:#ffffff"
   id="g4">
		<path
   style="fill:#ffffff"
   d="m 108,40 c -26.51,0 -48,21.49 -48,48 0.026,26.499 21.501,47.974 48,48 26.51,0 48,-21.49 48,-48 0,-26.51 -21.49,-48 -48,-48 z m 0,80 C 90.327,120 76,105.673 76,88 76,70.327 90.327,56 108,56 c 17.673,0 32,14.327 32,32 0,17.673 -14.327,32 -32,32 z"
   id="path2" />
	</g>
</g><g
     style="fill:#ffffff"
     id="g12">
	<g
   style="fill:#ffffff"
   id="g10">
		<path
   style="fill:#ffffff"
   d="m 195.664,317.704 -48,-160 C 146.65,154.319 143.534,152 140,152 H 76 c -3.534,0 -6.65,2.319 -7.664,5.704 l -48,160 c -0.728,2.432 -0.259,5.065 1.264,7.096 1.511,2.014 3.882,3.2 6.4,3.2 h 32 v 104 c 0,4.418 3.582,8 8,8 h 80 c 4.418,0 8,-3.582 8,-8 V 328 h 32 c 4.418,0 8,-3.581 8.001,-7.999 0,-0.778 -0.114,-1.552 -0.337,-2.297 z M 148,312 c -4.418,0 -8,3.582 -8,8 V 424 H 116 V 312 H 100 V 424 H 76 V 320 c 0,-4.418 -3.582,-8 -8,-8 H 38.752 l 43.2,-144 h 52.096 l 43.2,144 z"
   id="path8" />
	</g>
</g></g></svg>
