<?xml version="1.0" encoding="UTF-8"?>
<svg enable-background="new 0 0 480 480" version="1.1" viewBox="0 0 480 480" xml:space="preserve" xmlns="http://www.w3.org/2000/svg">




















<circle cx="240" cy="240" r="240" fill="#303f9f"/><g transform="matrix(.98585 0 0 .98585 -134.62 3.3967)" fill="#fff">
	<g fill="#fff">
		<path d="m380 40c-26.51 0-48 21.49-48 48s21.49 48 48 48c26.499-0.026 47.974-21.501 48-48 0-26.51-21.49-48-48-48zm0 80c-17.673 0-32-14.327-32-32s14.327-32 32-32 32 14.327 32 32-14.327 32-32 32z" fill="#fff"/>
	</g>

	<g fill="#fff">
		<path d="m404 152h-48c-30.913 0.035-55.965 25.087-56 56v112c0 4.418 3.582 8 8 8h24v104c0 4.418 3.582 8 8 8h80c4.418 0 8-3.582 8-8v-104h24c4.418 0 8-3.582 8-8v-112c-0.035-30.913-25.086-55.965-56-56zm40 160h-16v-96h-16v208h-24v-112h-16v112h-24v-208h-16v96h-16v-104c0.026-22.08 17.92-39.974 40-40h48c22.08 0.026 39.974 17.92 40 40z" fill="#fff"/>
	</g>
</g></svg>
