<?xml version="1.0" encoding="UTF-8"?>
<svg width="480" height="480" version="1.1" viewBox="0 0 480 480" xml:space="preserve" xmlns="http://www.w3.org/2000/svg">


















<rect transform="rotate(135)" x="-170" y="-509.41" width="339" height="339" fill="#ff8f00" stroke-linejoin="round" stroke-width="20"/><g transform="matrix(.52762 0 0 .52762 3.0829 198.46)" fill="#fff"><path d="m449.02-49.203c2.831-5e-3 5.548 1.115 7.552 3.115l234.67 234.67c4.093 4.237 3.975 10.99-0.262 15.083-4.134 3.992-10.687 3.992-14.82 0l-227.14-227.11-227.12 227.14c-4.237 4.093-10.99 3.975-15.083-0.262-3.993-4.134-3.993-10.687 0-14.821l234.67-234.67c1.996-2.001 4.704-3.129 7.531-3.136z" fill="#fff"/></g></svg>
